#!OML:ASF F:\VICON\USERDATA\INSTALL\rory3\rory3.ASF
:FULLY-SPECIFIED
:DEGREES
201
root 0.652869 18.3048 6.38383 -5.1695 -1.94564 -4.09897
lowerback 14.4972 -0.452038 2.3764
upperback -0.836301 0.17805 4.02895
thorax -9.08014 0.0819933 2.95595
lowerneck -10.8679 -0.611035 -1.7508
upperneck 27.8421 -0.112637 -1.38119
head 10.7322 -0.4022 -0.209771
rclavicle 3.72721e-015 2.06736e-014
rhumerus -37.1865 -13.9632 -73.689
rradius 24.3655
rwrist 6.53983
rhand -13.4769 9.75444
rfingers 7.12502
rthumb 12.6335 -19.8435
lclavicle 3.72721e-015 2.06736e-014
lhumerus -40.1436 2.96158 87.6366
lradius 40.0346
lwrist 4.97678
lhand -12.5385 50.9483
lfingers 7.12502
lthumb 13.538 80.4882
rfemur -6.85931 4.27543 29.3223
rtibia 21.1327
rfoot -5.80629 -3.9468
rtoes 19.3529
lfemur -11.4427 -2.5641 -17.876
ltibia 65.4342
lfoot 9.97174 -2.52196
ltoes -13.2596
202
root 0.62817 18.2952 6.52671 -5.29688 -2.27097 -4.30692
lowerback 14.4778 -0.321465 2.42889
upperback -0.672781 0.356076 4.07911
thorax -8.89659 0.165945 2.93641
lowerneck -10.9641 -0.709221 -2.1083
upperneck 27.8202 -0.270408 -1.02217
head 10.7452 -0.469195 -0.0388997
rclavicle -7.99487e-015 1.74931e-014
rhumerus -36.7095 -13.7926 -73.9473
rradius 24.6691
rwrist 6.269
rhand -13.5538 10.188
rfingers 7.12502
rthumb 12.5593 -19.4145
lclavicle -7.99487e-015 1.74931e-014
lhumerus -39.6949 2.84482 87.6821
lradius 39.5606
lwrist 5.0455
lhand -12.4496 51.0227
lfingers 7.12502
lthumb 13.6237 80.5569
rfemur -6.38388 4.82318 29.7693
rtibia 21.5047
rfoot -6.3474 -4.23712
rtoes 20.2845
lfemur -12.4378 -1.97423 -17.4364
ltibia 66.0231
lfoot 9.17045 -2.2285
ltoes -14.0811
203
root 0.613253 18.2839 6.65971 -5.4203 -2.30709 -4.3316
lowerback 14.4449 -0.295065 2.44474
upperback -0.391749 0.375883 4.05804
thorax -8.57152 0.173425 2.89237
lowerneck -11.4559 -0.748254 -2.25874
upperneck 27.7992 -0.312948 -0.889639
head 10.8363 -0.48934 0.0276087
rclavicle 4.93545e-015 -3.65764e-014
rhumerus -35.902 -13.4906 -74.3928
rradius 25.0731
rwrist 5.64795
rhand -13.532 10.3758
rfingers 7.12502
rthumb 12.5804 -19.2254
lclavicle 4.93545e-015 -3.65764e-014
lhumerus -39.2664 2.8983 87.7102
lradius 39.6249
lwrist 5.04684
lhand -12.5663 50.6658
lfingers 7.12502
lthumb 13.5112 80.2074
rfemur -5.95819 4.97432 29.9392
rtibia 21.9036
rfoot -6.89476 -4.44618
rtoes 20.4938
lfemur -13.5141 -1.72591 -17.317
ltibia 66.4522
lfoot 8.11155 -1.90247
ltoes -14.8199
204
root 0.605784 18.2726 6.79559 -5.52326 -2.34202 -4.46807
lowerback 14.9743 -0.346844 2.6503
upperback -0.709342 0.384172 4.0182
thorax -9.21952 0.167413 2.74835
lowerneck -10.7968 -0.75131 -2.08387
upperneck 27.8875 -0.334935 -1.04378
head 10.7374 -0.499355 -0.0585162
rclavicle -6.5102e-015 3.73715e-014
rhumerus -36.1181 -12.7125 -74.7389
rradius 25.6013
rwrist 4.92348
rhand -13.5921 10.2229
rfingers 7.12502
rthumb 12.5224 -19.3818
lclavicle -6.5102e-015 3.73715e-014
lhumerus -40.0339 2.93102 87.6155
lradius 39.9296
lwrist 5.43179
lhand -12.9833 50.1432
lfingers 7.12502
lthumb 13.1093 79.7111
rfemur -5.513 4.80814 30.1735
rtibia 22.264
rfoot -7.51114 -4.32483
rtoes 20.6847
lfemur -14.567 -1.47458 -17.1269
ltibia 66.7264
lfoot 6.68152 -1.59011
ltoes -14.3193
205
root 0.597676 18.2588 6.94321 -5.75923 -2.55143 -4.67307
lowerback 15.1258 -0.326327 2.90832
upperback -0.567513 0.457726 4.00903
thorax -9.1509 0.189964 2.57409
lowerneck -11.1033 -0.634864 -2.0255
upperneck 28.0709 -0.16437 -1.06046
head 10.8662 -0.419739 -0.05535
rclavicle 3.27995e-015 -2.46493e-014
rhumerus -35.608 -12.232 -75.2045
rradius 26.0584
rwrist 4.29533
rhand -13.777 9.82306
rfingers 7.12502
rthumb 12.3441 -19.7925
lclavicle 3.27995e-015 -2.46493e-014
lhumerus -40.075 2.92132 87.5341
lradius 40.1904
lwrist 5.74906
lhand -13.0134 50.0672
lfingers 7.12502
lthumb 13.0803 79.6371
rfemur -4.89964 4.74651 30.5051
rtibia 22.6626
rfoot -8.20262 -4.134
rtoes 21.4317
lfemur -15.3084 -1.02746 -16.8431
ltibia 66.8384
lfoot 5.2051 -1.42232
ltoes -15.5516
206
root 0.587004 18.2457 7.08732 -5.96066 -2.74548 -4.61736
lowerback 15.2627 -0.239393 2.84244
upperback -0.435136 0.5566 3.9494
thorax -9.08563 0.239015 2.52294
lowerneck -11.238 -0.611151 -1.99337
upperneck 27.9067 -0.142474 -1.03389
head 10.8308 -0.401747 -0.0483064
rclavicle 1.08089e-015 -4.77083e-014
rhumerus -35.1254 -11.8344 -75.6045
rradius 26.5878
rwrist 3.6153
rhand -13.8046 8.8624
rfingers 7.12502
rthumb 12.3175 -20.7548
lclavicle 1.08089e-015 -4.77083e-014
lhumerus -39.9974 2.93122 87.4657
lradius 40.3159
lwrist 5.75052
lhand -12.5307 50.3278
lfingers 7.12502
lthumb 13.5456 79.8672
rfemur -4.31338 4.82109 30.5792
rtibia 23.021
rfoot -8.81989 -4.07819
rtoes 21.3241
lfemur -16.0445 -0.675708 -16.8676
ltibia 66.8096
lfoot 3.80799 -1.3316
ltoes -18.059
207
root 0.576492 18.2284 7.22093 -5.96273 -2.7328 -4.73853
lowerback 15.4177 -0.228023 3.00453
upperback -0.491332 0.61151 3.93187
thorax -9.23527 0.256821 2.40288
lowerneck -10.9149 -0.70547 -2.35122
upperneck 27.6846 -0.272005 -0.805037
head 10.6859 -0.468024 0.0813254
rclavicle -1.50269e-014 4.29375e-014
rhumerus -34.8688 -11.4203 -75.9013
rradius 27.1389
rwrist 2.81285
rhand -14.1057 13.6186
rfingers 7.12502
rthumb 12.0272 -16.0158
lclavicle -1.50269e-014 4.29375e-014
lhumerus -40.1917 2.85105 87.4982
lradius 40.5199
lwrist 5.76248
lhand -12.3347 50.4191
lfingers 7.12502
lthumb 13.7345 79.9458
rfemur -3.97464 4.72252 30.8185
rtibia 23.3623
rfoot -9.29491 -4.10136
rtoes 20.9854
lfemur -17.1125 -0.555527 -16.6989
ltibia 66.7242
lfoot 2.42172 -1.05703
ltoes -19.3778
208
root 0.567751 18.2046 7.35266 -5.96662 -2.73757 -5.3149
lowerback 15.5139 -0.279058 3.62185
upperback -0.462827 0.670517 4.03302
thorax -9.25631 0.258252 2.15
lowerneck -10.9775 -0.711426 -2.3955
upperneck 27.7065 -0.277585 -0.768483
head 10.7068 -0.471042 0.101129
rclavicle -5.05658e-015 2.38542e-015
rhumerus -34.5738 -10.7691 -76.2906
rradius 27.8163
rwrist 1.99339
rhand -14.2345 14.7971
rfingers 7.12502
rthumb 11.903 -14.8445
lclavicle -5.05658e-015 2.38542e-015
lhumerus -40.3801 2.75914 87.5782
lradius 40.9972
lwrist 5.93154
lhand -12.272 50.9293
lfingers 7.12502
lthumb 13.7949 80.4519
rfemur -3.67304 4.55101 31.5492
rtibia 23.678
rfoot -9.71368 -4.11853
rtoes 20.2434
lfemur -18.1828 -0.3979 -15.9819
ltibia 66.5915
lfoot 1.18156 -0.724138
ltoes -18.2804
209
root 0.556236 18.183 7.48696 -6.09723 -2.95419 -5.78343
lowerback 15.5875 -0.243566 4.03274
upperback -0.265972 0.796031 4.14199
thorax -9.08107 0.303794 2.00307
lowerneck -11.171 -0.74309 -2.34185
upperneck 27.6276 -0.323359 -0.788933
head 10.7157 -0.488309 0.0784862
rclavicle 1.49477e-014 1.82882e-014
rhumerus -34.0422 -10.1574 -76.6685
rradius 28.4185
rwrist 1.42346
rhand -14.1814 14.3351
rfingers 7.12502
rthumb 11.9542 -15.3036
lclavicle 1.49477e-014 1.82882e-014
lhumerus -40.1333 2.68535 87.6387
lradius 41.2121
lwrist 6.18789
lhand -12.2743 51.5266
lfingers 7.12502
lthumb 13.7926 81.0493
rfemur -3.2021 4.55913 32.1967
rtibia 23.9567
rfoot -10.1591 -4.16465
rtoes 19.3544
lfemur -18.9639 -0.0372947 -15.3626
ltibia 66.2812
lfoot -0.0919194 -0.534348
ltoes -17.4405
210
root 0.547794 18.1659 7.62777 -6.23485 -3.06605 -5.95257
lowerback 15.6182 -0.183124 4.19698
upperback -0.133716 0.901109 4.15261
thorax -8.95214 0.348615 1.89477
lowerneck -10.9751 -0.806352 -2.32598
upperneck 27.3287 -0.430977 -0.771288
head 10.5663 -0.530276 0.0705749
rclavicle -1.40314e-015 -1.74931e-014
rhumerus -33.6303 -9.7646 -76.8974
rradius 28.9614
rwrist 1.1061
rhand -14.1755 14.0924
rfingers 7.12502
rthumb 11.9599 -15.546
lclavicle -1.40314e-015 -1.74931e-014
lhumerus -39.9777 2.46753 87.7207
lradius 41.2679
lwrist 6.44276
lhand -12.5398 51.2302
lfingers 7.12502
lthumb 13.5367 80.7701
rfemur -2.72668 4.58373 32.4987
rtibia 24.275
rfoot -10.7267 -4.33938
rtoes 18.736
lfemur -19.674 0.185502 -15.1376
ltibia 65.768
lfoot -1.28214 -0.318744
ltoes -18.5864
211
root 0.545264 18.1469 7.77244 -6.22841 -2.87919 -5.94942
lowerback 15.5413 -0.218211 4.29491
upperback -0.178784 0.865377 4.10404
thorax -8.9556 0.325634 1.79518
lowerneck -10.7309 -0.837606 -2.33849
upperneck 27.2565 -0.469997 -0.809658
head 10.4918 -0.552567 0.0555699
rclavicle -1.98862e-014 -4.6118e-014
rhumerus -33.4567 -9.02582 -77.2054
rradius 29.7047
rwrist 0.511187
rhand -14.4044 13.3589
rfingers 7.12502
rthumb 11.7391 -16.2921
lclavicle -1.98862e-014 -4.6118e-014
lhumerus -40.31 2.39339 87.7774
lradius 41.7497
lwrist 6.63786
lhand -12.6373 50.828
lfingers 7.12502
lthumb 13.4428 80.3742
rfemur -2.41335 4.3785 32.5521
rtibia 24.6013
rfoot -11.3014 -4.51097
rtoes 18.2058
lfemur -20.5721 0.115256 -15.191
ltibia 65.0702
lfoot -2.19423 0.121041
ltoes -19.5889
212
root 0.54191 18.123 7.91271 -6.09363 -2.65372 -5.83068
lowerback 15.4759 -0.287154 4.2521
upperback -0.329404 0.762162 4.0084
thorax -9.08222 0.273668 1.74201
lowerneck -10.5079 -0.816689 -2.31416
upperneck 27.3176 -0.438888 -0.857149
head 10.4701 -0.541585 0.0389233
rclavicle -2.81746e-014 -1.59028e-015
rhumerus -33.306 -8.34077 -77.5474
rradius 30.3089
rwrist 0.00375309
rhand -14.5827 12.5623
rfingers 7.12502
rthumb 11.5672 -17.0984
lclavicle -2.81746e-014 -1.59028e-015
lhumerus -40.6425 2.45229 87.7434
lradius 42.0843
lwrist 6.83554
lhand -12.5511 51.2589
lfingers 7.12502
lthumb 13.5259 80.7996
rfemur -2.246 4.25733 32.4821
rtibia 24.9215
rfoot -11.9045 -4.82463
rtoes 17.7973
lfemur -21.5418 0.0280995 -15.3937
ltibia 64.2101
lfoot -3.40641 0.643984
ltoes -19.9367
